<?xml version="1.0" standalone="no"?>
<!DOCTYPE svg PUBLIC "-//W3C//DTD SVG 20010904//EN"
 "http://www.w3.org/TR/2001/REC-SVG-20010904/DTD/svg10.dtd">
<svg version="1.0" xmlns="http://www.w3.org/2000/svg"
 width="330.000000pt" height="330.000000pt" viewBox="0 0 330.000000 330.000000"
 preserveAspectRatio="xMidYMid meet">

<g transform="translate(0.000000,330.000000) scale(0.100000,-0.100000)"
fill="#000000" stroke="none">
<path d="M0 1650 l0 -1650 1650 0 1650 0 0 1650 0 1650 -1650 0 -1650 0 0
-1650z m2314 962 c463 -377 653 -538 649 -548 -3 -8 -11 -13 -18 -10 -7 2
-299 237 -649 520 -349 284 -640 516 -646 516 -6 0 -297 -232 -647 -516 -350
-284 -642 -518 -648 -520 -7 -3 -15 2 -18 10 -4 10 188 172 651 550 361 294
660 534 664 533 3 -1 301 -242 662 -535z m-272 -229 c11 -10 18 -30 18 -55 l0
-38 -410 0 -410 0 0 39 c0 73 -14 71 407 71 336 0 378 -2 395 -17z m16 -415
l-3 -283 -405 0 -405 0 -3 283 -2 282 410 0 410 0 -2 -282z m-1128 -610 c0
-10 -4 -18 -10 -18 -5 0 -10 5 -10 10 0 13 -27 13 -35 0 -3 -5 8 -16 25 -25
18 -9 30 -23 30 -35 0 -22 0 -22 -47 -26 -27 -2 -33 1 -33 17 0 20 15 26 25 9
10 -16 35 -12 35 5 0 9 -11 20 -25 25 -14 5 -25 17 -25 28 0 26 7 31 41 30 21
-1 29 -6 29 -20z m60 7 c0 -8 7 -15 15 -15 8 0 15 -4 15 -10 0 -5 -7 -10 -15
-10 -10 0 -15 -10 -15 -26 0 -21 4 -25 20 -21 23 6 27 -11 5 -19 -21 -8 -45
14 -45 41 0 13 -6 26 -12 29 -10 5 -10 7 0 12 6 3 12 12 12 20 0 8 5 14 10 14
6 0 10 -7 10 -15z m304 -36 c11 11 24 21 29 21 6 0 3 -8 -6 -18 -10 -10 -17
-22 -17 -27 0 -5 7 -17 17 -27 9 -10 11 -18 6 -18 -6 0 -16 7 -23 15 -16 20
-27 19 -33 -2 -3 -10 -5 11 -4 47 0 52 1 57 6 26 l6 -38 19 21z m235 33 c13
-25 -5 -52 -34 -52 -18 0 -25 -6 -28 -27 -2 -16 -5 0 -6 35 l-1 62 30 0 c18 0
33 -7 39 -18z m71 -32 c0 -27 5 -50 10 -50 6 0 10 -4 10 -10 0 -5 -10 -10 -22
-10 -21 0 -23 4 -23 60 0 41 4 60 13 60 8 0 12 -17 12 -50z m290 35 c0 -8 7
-15 15 -15 8 0 15 -4 15 -10 0 -5 -7 -10 -15 -10 -10 0 -15 -10 -15 -26 0 -21
4 -25 20 -21 23 6 27 -11 5 -19 -21 -8 -45 14 -45 41 0 13 -6 26 -12 29 -10 5
-10 7 0 12 6 3 12 12 12 20 0 8 5 14 10 14 6 0 10 -7 10 -15z m200 0 c0 -8 7
-15 15 -15 8 0 15 -4 15 -10 0 -5 -7 -10 -15 -10 -10 0 -15 -10 -15 -26 0 -21
4 -25 20 -21 23 6 27 -11 5 -19 -21 -8 -45 14 -45 41 0 13 -6 26 -12 29 -10 5
-10 7 0 12 6 3 12 12 12 20 0 8 5 14 10 14 6 0 10 -7 10 -15z m110 5 c0 -5 -4
-10 -10 -10 -5 0 -10 5 -10 10 0 6 5 10 10 10 6 0 10 -4 10 -10z m-1076 -36
c9 -8 16 -22 16 -29 0 -7 -7 -21 -16 -29 -30 -30 -74 -13 -74 29 0 42 44 59
74 29z m106 -6 c0 -20 -16 -24 -22 -6 -6 18 -40 0 -36 -19 2 -12 13 -18 31
-18 32 1 31 -19 -2 -23 -42 -6 -69 46 -40 75 19 19 69 11 69 -9z m484 16 c11
-4 16 -19 16 -43 0 -36 -1 -38 -35 -39 -54 -2 -59 48 -7 61 9 2 7 3 -5 2 -23
-2 -29 5 -16 18 8 9 27 9 47 1z m114 -41 c2 -26 -1 -43 -7 -43 -6 0 -11 16
-11 35 0 43 -27 49 -36 8 -10 -49 -12 -49 -13 -3 -1 45 -1 46 32 45 31 0 32
-2 35 -42z m186 41 c11 -4 16 -19 16 -43 0 -36 -1 -38 -35 -39 -54 -2 -59 48
-7 61 9 2 7 3 -5 2 -23 -2 -29 5 -16 18 8 9 27 9 47 1z m186 -29 c0 -19 5 -35
10 -35 6 0 10 -4 10 -10 0 -5 -10 -10 -22 -10 -20 0 -23 5 -23 45 0 29 4 45
13 45 7 0 12 -14 12 -35z m124 19 c9 -8 16 -22 16 -29 0 -7 -7 -21 -16 -29
-30 -30 -74 -13 -74 29 0 42 44 59 74 29z m104 -31 c2 -26 -1 -43 -7 -43 -6 0
-11 16 -11 35 0 43 -27 49 -36 8 -10 -49 -12 -49 -13 -3 -1 45 -1 46 32 45 31
0 32 -2 35 -42z m-1428 -563 c351 -286 644 -520 650 -520 6 0 299 234 651 521
588 478 669 538 669 501 0 -5 -297 -251 -660 -545 l-660 -536 -643 521 c-353
286 -650 529 -661 538 -18 17 -15 40 5 40 5 0 297 -234 649 -520z"/>
<path d="M1470 2107 c0 -7 20 -33 45 -57 l45 -44 -47 -48 c-34 -34 -44 -51
-36 -59 7 -7 28 6 72 47 l62 57 -58 59 c-56 57 -83 71 -83 45z"/>
<path d="M1611 1921 c-33 -21 3 -31 114 -31 73 0 116 4 121 11 12 21 -21 29
-121 29 -55 0 -106 -4 -114 -9z"/>
<path d="M1470 1345 c0 -11 7 -15 23 -13 12 2 22 8 22 13 0 6 -10 11 -22 13
-16 2 -23 -2 -23 -13z"/>
<path d="M1074 1315 c-4 -9 -2 -21 4 -27 15 -15 44 -1 40 19 -4 23 -36 29 -44
8z"/>
<path d="M1670 1290 c0 -5 9 -10 20 -10 11 0 20 5 20 10 0 6 -9 10 -20 10 -11
0 -20 -4 -20 -10z"/>
<path d="M1970 1290 c0 -5 9 -10 20 -10 11 0 20 5 20 10 0 6 -9 10 -20 10 -11
0 -20 -4 -20 -10z"/>
<path d="M2274 1315 c-4 -9 -2 -21 4 -27 15 -15 44 -1 40 19 -4 23 -36 29 -44
8z"/>
</g>
</svg>
